#Comment line ignore any data following # character 
#Hierarchical Translation and Rotation (.htr) file 
[Header]	
#Header keywords are followed by a single value 
FileType HTR		#Single word string
DataType HTRS		#Translation followed by rotation and scale data
FileVersion 1		#integer
NumSegments 84		#integer
NumFrames 2		#integer
DataFrameRate 30		#integer, data frame rate in this file
EulerRotationOrder ZYX
CalibrationUnits mm
RotationUnits Degrees
GlobalAxisofGravity Y
BoneLengthAxis Y
ScaleFactor 1.00
[SegmentNames&Hierarchy]
#CHILD	PARENT
MASTER GLOBAL
root MASTER
chest root
L_mid_tent01 root
R_mid_tent01 root
spine01 root
Bip01_Neck chest
L_humerus chest
R_humerus chest
weapon_bone chest
Bip01_Head Bip01_Neck
eye_left_bone Bip01_Head
eye_right_bone Bip01_Head
L_forearm L_humerus
L_front_hand L_forearm
L_weapon_bone L_forearm
L_front_hand01_01 L_front_hand
L_front_hand02_01 L_front_hand
L_front_hand03_01 L_front_hand
L_front_hand01_02 L_front_hand01_01
L_front_hand02_02 L_front_hand02_01
L_front_hand03_02 L_front_hand03_01
R_forearm R_humerus
R_front_hand R_forearm
R_weapon_bone R_forearm
R_front_hand01_01 R_front_hand
R_front_hand02_01 R_front_hand
R_front_hand03_01 R_front_hand
R_front_hand01_02 R_front_hand01_01
R_front_hand02_02 R_front_hand02_01
R_front_hand03_02 R_front_hand03_01
null_rope01_connect L_mid_tent01
Rope1_Seg01 null_rope01_connect
Rope1_Seg02 Rope1_Seg01
Rope1_Seg03 Rope1_Seg02
Rope1_Seg04 Rope1_Seg03
Rope1_Seg05 Rope1_Seg04
Rope1_Seg06 Rope1_Seg05
Rope1_Seg07 Rope1_Seg06
Rope1_Seg09 Rope1_Seg07
L_mid_hand01 Rope1_Seg09
L_mid_hand02 Rope1_Seg09
L_mid_hand03 Rope1_Seg09
null_rope02_connect R_mid_tent01
Rope2_Seg01 null_rope02_connect
Rope2_Seg02 Rope2_Seg01
Rope2_Seg03 Rope2_Seg02
Rope2_Seg04 Rope2_Seg03
Rope2_Seg05 Rope2_Seg04
Rope2_Seg06 Rope2_Seg05
Rope2_Seg07 Rope2_Seg06
Rope2_Seg09 Rope2_Seg07
R_mid_hand01 Rope2_Seg09
R_mid_hand02 Rope2_Seg09
R_mid_hand03 Rope2_Seg09
spine02 spine01
spine03 spine02
pelvis spine03
null_rope03_connect pelvis
null_rope04_connect pelvis
Rope3_Seg01 null_rope03_connect
Rope3_Seg02 Rope3_Seg01
Rope3_Seg03 Rope3_Seg02
Rope3_Seg04 Rope3_Seg03
Rope3_Seg05 Rope3_Seg04
Rope3_Seg06 Rope3_Seg05
Rope3_Seg07 Rope3_Seg06
Rope3_Seg08 Rope3_Seg07
Rope3_Seg09 Rope3_Seg08
R_rear_hand01 Rope3_Seg09
R_rear_hand02 Rope3_Seg09
R_rear_hand03 Rope3_Seg09
Rope4_Seg01 null_rope04_connect
Rope4_Seg02 Rope4_Seg01
Rope4_Seg03 Rope4_Seg02
Rope4_Seg04 Rope4_Seg03
Rope4_Seg05 Rope4_Seg04
Rope4_Seg06 Rope4_Seg05
Rope4_Seg07 Rope4_Seg06
Rope4_Seg08 Rope4_Seg07
Rope4_Seg09 Rope4_Seg08
L_rear_hand01 Rope4_Seg09
L_rear_hand02 Rope4_Seg09
L_rear_hand03 Rope4_Seg09
[BasePosition]
#SegmentName Tx, Ty, Tz, Rx, Ry, Rz, BoneLength
MASTER 0.000000 0.000000 0.000000 -90.000000 0.000000 0.000000 10.000000 
root 0.000000 0.000000 0.000000 0.000000 0.000000 0.000000 10.000000 
chest 0.000000 0.000000 0.000000 0.000000 0.000000 0.000000 10.000000 
L_mid_tent01 0.000000 0.000000 0.000000 0.000000 0.000000 0.000000 10.000000 
R_mid_tent01 0.000000 0.000000 0.000000 0.000000 0.000000 0.000000 10.000000 
spine01 0.000000 0.000000 0.000000 0.000000 0.000000 0.000000 10.000000 
Bip01_Neck 0.000000 0.000000 0.000000 0.000000 0.000000 0.000000 10.000000 
L_humerus 0.000000 0.000000 0.000000 0.000000 0.000000 0.000000 10.000000 
R_humerus 0.000000 0.000000 0.000000 0.000000 0.000000 0.000000 10.000000 
weapon_bone 0.000000 0.000000 0.000000 0.000000 0.000000 0.000000 10.000000 
Bip01_Head 0.000000 0.000000 0.000000 0.000000 0.000000 0.000000 10.000000 
eye_left_bone 0.000000 0.000000 0.000000 0.000000 0.000000 0.000000 10.000000 
eye_right_bone 0.000000 0.000000 0.000000 0.000000 0.000000 0.000000 10.000000 
L_forearm 0.000000 0.000000 0.000000 0.000000 0.000000 0.000000 10.000000 
L_front_hand 0.000000 0.000000 0.000000 0.000000 0.000000 0.000000 10.000000 
L_weapon_bone 0.000000 0.000000 0.000000 0.000000 0.000000 0.000000 10.000000 
L_front_hand01_01 0.000000 0.000000 0.000000 0.000000 0.000000 0.000000 10.000000 
L_front_hand02_01 0.000000 0.000000 0.000000 0.000000 0.000000 0.000000 10.000000 
L_front_hand03_01 0.000000 0.000000 0.000000 0.000000 0.000000 0.000000 10.000000 
L_front_hand01_02 0.000000 0.000000 0.000000 0.000000 0.000000 0.000000 10.000000 
L_front_hand02_02 0.000000 0.000000 0.000000 0.000000 0.000000 0.000000 10.000000 
L_front_hand03_02 0.000000 0.000000 0.000000 0.000000 0.000000 0.000000 10.000000 
R_forearm 0.000000 0.000000 0.000000 0.000000 0.000000 0.000000 10.000000 
R_front_hand 0.000000 0.000000 0.000000 0.000000 0.000000 0.000000 10.000000 
R_weapon_bone 0.000000 0.000000 0.000000 0.000000 0.000000 0.000000 10.000000 
R_front_hand01_01 0.000000 0.000000 0.000000 0.000000 0.000000 0.000000 10.000000 
R_front_hand02_01 0.000000 0.000000 0.000000 0.000000 0.000000 0.000000 10.000000 
R_front_hand03_01 0.000000 0.000000 0.000000 0.000000 0.000000 0.000000 10.000000 
R_front_hand01_02 0.000000 0.000000 0.000000 0.000000 0.000000 0.000000 10.000000 
R_front_hand02_02 0.000000 0.000000 0.000000 0.000000 0.000000 0.000000 10.000000 
R_front_hand03_02 0.000000 0.000000 0.000000 0.000000 0.000000 0.000000 10.000000 
null_rope01_connect 0.000000 0.000000 0.000000 0.000000 0.000000 0.000000 10.000000 
Rope1_Seg01 0.000000 0.000000 0.000000 0.000000 0.000000 0.000000 10.000000 
Rope1_Seg02 0.000000 0.000000 0.000000 0.000000 0.000000 0.000000 10.000000 
Rope1_Seg03 0.000000 0.000000 0.000000 0.000000 0.000000 0.000000 10.000000 
Rope1_Seg04 0.000000 0.000000 0.000000 0.000000 0.000000 0.000000 10.000000 
Rope1_Seg05 0.000000 0.000000 0.000000 0.000000 0.000000 0.000000 10.000000 
Rope1_Seg06 0.000000 0.000000 0.000000 0.000000 0.000000 0.000000 10.000000 
Rope1_Seg07 0.000000 0.000000 0.000000 0.000000 0.000000 0.000000 10.000000 
Rope1_Seg09 0.000000 0.000000 0.000000 0.000000 0.000000 0.000000 10.000000 
L_mid_hand01 0.000000 0.000000 0.000000 0.000000 0.000000 0.000000 10.000000 
L_mid_hand02 0.000000 0.000000 0.000000 0.000000 0.000000 0.000000 10.000000 
L_mid_hand03 0.000000 0.000000 0.000000 0.000000 0.000000 0.000000 10.000000 
null_rope02_connect 0.000000 0.000000 0.000000 0.000000 0.000000 0.000000 10.000000 
Rope2_Seg01 0.000000 0.000000 0.000000 0.000000 0.000000 0.000000 10.000000 
Rope2_Seg02 0.000000 0.000000 0.000000 0.000000 0.000000 0.000000 10.000000 
Rope2_Seg03 0.000000 0.000000 0.000000 0.000000 0.000000 0.000000 10.000000 
Rope2_Seg04 0.000000 0.000000 0.000000 0.000000 0.000000 0.000000 10.000000 
Rope2_Seg05 0.000000 0.000000 0.000000 0.000000 0.000000 0.000000 10.000000 
Rope2_Seg06 0.000000 0.000000 0.000000 0.000000 0.000000 0.000000 10.000000 
Rope2_Seg07 0.000000 0.000000 0.000000 0.000000 0.000000 0.000000 10.000000 
Rope2_Seg09 0.000000 0.000000 0.000000 0.000000 0.000000 0.000000 10.000000 
R_mid_hand01 0.000000 0.000000 0.000000 0.000000 0.000000 0.000000 10.000000 
R_mid_hand02 0.000000 0.000000 0.000000 0.000000 0.000000 0.000000 10.000000 
R_mid_hand03 0.000000 0.000000 0.000000 0.000000 0.000000 0.000000 10.000000 
spine02 0.000000 0.000000 0.000000 0.000000 0.000000 0.000000 10.000000 
spine03 0.000000 0.000000 0.000000 0.000000 0.000000 0.000000 10.000000 
pelvis 0.000000 0.000000 0.000000 0.000000 0.000000 0.000000 10.000000 
null_rope03_connect 0.000000 0.000000 0.000000 0.000000 0.000000 0.000000 10.000000 
null_rope04_connect 0.000000 0.000000 0.000000 0.000000 0.000000 0.000000 10.000000 
Rope3_Seg01 0.000000 0.000000 0.000000 0.000000 0.000000 0.000000 10.000000 
Rope3_Seg02 0.000000 0.000000 0.000000 0.000000 0.000000 0.000000 10.000000 
Rope3_Seg03 0.000000 0.000000 0.000000 0.000000 0.000000 0.000000 10.000000 
Rope3_Seg04 0.000000 0.000000 0.000000 0.000000 0.000000 0.000000 10.000000 
Rope3_Seg05 0.000000 0.000000 0.000000 0.000000 0.000000 0.000000 10.000000 
Rope3_Seg06 0.000000 0.000000 0.000000 0.000000 0.000000 0.000000 10.000000 
Rope3_Seg07 0.000000 0.000000 0.000000 0.000000 0.000000 0.000000 10.000000 
Rope3_Seg08 0.000000 0.000000 0.000000 0.000000 0.000000 0.000000 10.000000 
Rope3_Seg09 0.000000 0.000000 0.000000 0.000000 0.000000 0.000000 10.000000 
R_rear_hand01 0.000000 0.000000 0.000000 0.000000 0.000000 0.000000 10.000000 
R_rear_hand02 0.000000 0.000000 0.000000 0.000000 0.000000 0.000000 10.000000 
R_rear_hand03 0.000000 0.000000 0.000000 0.000000 0.000000 0.000000 10.000000 
Rope4_Seg01 0.000000 0.000000 0.000000 0.000000 0.000000 0.000000 10.000000 
Rope4_Seg02 0.000000 0.000000 0.000000 0.000000 0.000000 0.000000 10.000000 
Rope4_Seg03 0.000000 0.000000 0.000000 0.000000 0.000000 0.000000 10.000000 
Rope4_Seg04 0.000000 0.000000 0.000000 0.000000 0.000000 0.000000 10.000000 
Rope4_Seg05 0.000000 0.000000 0.000000 0.000000 0.000000 0.000000 10.000000 
Rope4_Seg06 0.000000 0.000000 0.000000 0.000000 0.000000 0.000000 10.000000 
Rope4_Seg07 0.000000 0.000000 0.000000 0.000000 0.000000 0.000000 10.000000 
Rope4_Seg08 0.000000 0.000000 0.000000 0.000000 0.000000 0.000000 10.000000 
Rope4_Seg09 0.000000 0.000000 0.000000 0.000000 0.000000 0.000000 10.000000 
L_rear_hand01 0.000000 0.000000 0.000000 0.000000 0.000000 0.000000 10.000000 
L_rear_hand02 0.000000 0.000000 0.000000 0.000000 0.000000 0.000000 10.000000 
L_rear_hand03 0.000000 0.000000 0.000000 0.000000 0.000000 0.000000 10.000000 
#Beginning of Data. Separated by tabs
#Fr	Tx	Ty	Tz	Rx	Ry	Rz	SF
[MASTER]
43 -41.366211 6850.119629 13.475936 0.001660 0.001660 0.001660 6850.257813
44 -33.093258 7165.494141 10.780759 0.001660 0.001660 0.001660 7165.578125
[root]
43 20.209700 -77.460938 1101.872192 -92.772713 -17.483418 -88.888374 1104.776489
44 10.350044 -54.143459 1194.917847 -92.433937 -15.557360 -89.081253 1196.188599
[chest]
43 -84.512650 -34.090519 0.000000 0.578593 -6.422191 149.233612 91.129311
44 -84.512650 -34.090519 0.000000 -0.224095 -5.243150 153.231079 91.129311
[L_mid_tent01]
43 27.298635 22.178972 -249.918686 -18.230679 20.238779 25.982628 252.381607
44 27.298626 22.178968 -249.918686 -18.881348 18.644444 23.309322 252.381607
[R_mid_tent01]
43 23.228794 24.509907 226.238495 -170.194427 -22.886831 33.228199 228.744751
44 23.228794 24.509907 226.238495 -169.112915 -21.961597 31.331690 228.744751
[spine01]
43 -0.361383 -0.195265 0.000000 -0.000001 -0.000007 22.052340 0.410763
44 -0.361383 -0.195265 0.000000 -0.000001 -0.000007 22.052340 0.410763
[Bip01_Neck]
43 165.484543 71.581718 0.000119 176.643677 -1.657967 43.431911 180.302734
44 165.484543 71.581718 0.000119 176.643677 -1.657967 43.431911 180.302734
[L_humerus]
43 -13.983130 -135.272980 -120.471481 3.464953 77.039001 93.764587 181.680161
44 -13.983130 -135.272980 -120.471481 0.842821 75.751923 91.113907 181.680161
[R_humerus]
43 -13.983309 -135.273102 125.287651 32.096275 -79.066544 63.296669 184.909012
44 -13.983309 -135.273102 125.287651 31.537149 -77.494949 63.915703 184.909012
[weapon_bone]
43 235.964890 -300.705902 0.000000 0.000000 -89.951546 -128.212341 382.234833
44 235.964890 -300.705902 0.000000 0.000000 -89.951546 -128.212341 382.234833
[Bip01_Head]
43 203.286392 162.408447 31.616497 4.962490 2.797846 -43.898743 262.109650
44 203.286453 162.408447 31.616497 4.962490 2.797846 -43.898743 262.109680
[eye_left_bone]
43 -24.626970 125.451866 -64.772606 0.000000 -90.000000 -99.840431 143.318359
44 -24.626970 125.451866 -64.772606 0.000000 -90.000000 -99.840431 143.318359
[eye_right_bone]
43 -24.626970 125.451866 64.327362 0.000000 -89.965736 80.156380 143.117676
44 -24.626970 125.451866 64.327362 0.000000 -89.965736 80.156380 143.117676
[L_forearm]
43 322.776093 0.000000 -0.000119 0.000775 0.002215 -51.426239 322.776093
44 322.776093 0.000000 -0.000119 0.000849 0.002188 -47.608231 322.776093
[L_front_hand]
43 241.149185 -0.042021 -3.300071 0.836590 -1.835725 -27.423449 241.171753
44 241.149185 -0.042021 -3.300071 0.836590 -1.835725 -27.423449 241.171753
[L_weapon_bone]
43 156.183838 0.000000 0.000000 0.000014 0.000007 0.000001 156.183838
44 156.183838 0.000000 0.000000 0.000014 0.000007 0.000001 156.183838
[L_front_hand01_01]
43 86.095154 20.947098 -0.655860 -0.366594 -0.477154 75.385574 88.609184
44 86.095154 20.947098 -0.655860 -0.366594 -0.477154 75.385574 88.609184
[L_front_hand02_01]
43 86.935165 -11.437475 24.513514 154.399796 -59.883835 -61.369587 91.046425
44 86.935165 -11.437475 24.513514 154.399796 -59.883835 -61.369587 91.046425
[L_front_hand03_01]
43 86.637497 -14.123976 -20.424902 -153.913849 58.118122 -62.702866 90.126129
44 86.637497 -14.123976 -20.424902 -153.913879 58.118130 -62.702892 90.126129
[L_front_hand01_02]
43 71.020905 -0.000179 0.000030 0.000334 -0.002323 -106.379684 71.020905
44 71.020905 -0.000179 0.000030 0.000334 -0.002323 -106.379684 71.020905
[L_front_hand02_02]
43 71.020927 -0.000119 0.000060 0.000334 -0.002323 -106.379684 71.020927
44 71.020927 -0.000119 0.000060 0.000334 -0.002323 -106.379684 71.020927
[L_front_hand03_02]
43 71.020905 -0.000060 0.000060 0.000334 -0.002323 -106.379684 71.020905
44 71.020905 -0.000060 0.000060 0.000334 -0.002323 -106.379684 71.020905
[R_forearm]
43 322.776428 -0.000060 0.000030 0.152009 -0.147996 -46.766582 322.776428
44 322.776428 -0.000060 0.000030 0.143726 -0.159819 -42.606304 322.776428
[R_front_hand]
43 238.847015 -0.006795 2.210259 42.936222 -10.646152 -26.312963 238.857239
44 238.847015 -0.006795 2.210259 42.936222 -10.646152 -26.312963 238.857239
[R_weapon_bone]
43 155.664093 0.002503 -0.000030 0.003487 0.001180 -90.988930 155.664078
44 155.664093 0.002503 -0.000030 0.003487 0.001180 -90.988930 155.664078
[R_front_hand01_01]
43 87.624611 14.231146 22.918642 -154.633499 -59.950619 61.746044 91.683487
44 87.624611 14.231146 22.918642 -154.633499 -59.950619 61.746044 91.683487
[R_front_hand02_01]
43 89.356956 14.367283 -19.491137 154.602661 58.302849 63.744389 92.579636
44 89.356956 14.367283 -19.491137 154.602661 58.302849 63.744389 92.579636
[R_front_hand03_01]
43 87.286232 -22.307278 -0.143439 0.162155 -0.423168 -75.767921 90.091743
44 87.286232 -22.307278 -0.143439 0.162155 -0.423168 -75.767921 90.091743
[R_front_hand01_02]
43 71.020905 0.000060 0.000119 0.002323 -0.000334 106.381714 71.020905
44 71.020905 0.000060 0.000119 0.002323 -0.000334 106.381714 71.020905
[R_front_hand02_02]
43 71.020844 -0.000030 -0.000119 0.002323 -0.000334 106.381714 71.020836
44 71.020844 -0.000030 -0.000119 0.002323 -0.000334 106.381714 71.020836
[R_front_hand03_02]
43 71.020905 0.000000 0.000030 0.002323 -0.000334 106.381714 71.020905
44 71.020905 0.000000 0.000030 0.002323 -0.000334 106.381714 71.020905
[null_rope01_connect]
43 328.732483 0.000000 -0.000238 -145.438492 -61.047222 -135.872498 328.732483
44 328.732483 0.000000 -0.000238 -147.641495 -61.909859 -132.844437 328.732483
[Rope1_Seg01]
43 -0.000030 -0.001095 0.000136 43.943188 25.272661 -123.693550 0.001104
44 -0.000032 -0.001120 0.000140 41.971870 16.915241 -124.654968 0.001129
[Rope1_Seg02]
43 139.999863 -0.000179 0.000000 3.955555 -1.038855 7.290102 139.999863
44 139.999863 -0.000179 0.000000 4.853899 0.640728 5.144085 139.999863
[Rope1_Seg03]
43 139.999924 0.000060 -0.000060 3.883376 -1.869474 6.925909 139.999924
44 139.999924 0.000060 -0.000060 3.740701 -0.217588 4.285772 139.999924
[Rope1_Seg04]
43 139.999924 -0.000060 -0.000119 3.462692 -2.700608 6.426917 139.999924
44 139.999924 -0.000060 -0.000119 2.348574 -1.215818 3.618357 139.999924
[Rope1_Seg05]
43 139.999832 0.000119 -0.000060 17.060411 8.895131 6.260474 139.999832
44 139.999832 0.000119 -0.000060 20.501337 10.371248 8.207911 139.999832
[Rope1_Seg06]
43 139.999954 0.000119 -0.000060 12.813696 13.263371 1.492604 139.999954
44 139.999954 0.000119 -0.000060 14.239246 13.240435 3.162892 139.999954
[Rope1_Seg07]
43 139.999985 0.000060 0.000000 5.262671 7.354586 0.092071 139.999985
44 139.999985 0.000060 0.000000 5.125943 6.818030 0.327048 139.999985
[Rope1_Seg09]
43 121.602913 0.000119 -0.000089 -89.793175 -1.359789 0.847147 121.602913
44 121.602913 0.000119 -0.000089 -89.793175 -1.359789 0.847147 121.602913
[L_mid_hand01]
43 103.859421 1.038730 8.195221 130.544373 -67.584534 -38.866943 104.187431
44 103.859421 1.038730 8.195221 130.544373 -67.584534 -38.866943 104.187431
[L_mid_hand02]
43 105.572853 -4.139662 -10.864139 -168.923172 43.409309 -73.498886 106.211075
44 105.572853 -4.139662 -10.864139 -168.923172 43.409309 -73.498886 106.211075
[L_mid_hand03]
43 104.641464 17.579376 -3.913581 -6.012627 17.808174 74.893669 106.179977
44 104.641464 17.579376 -3.913581 -6.012627 17.808174 74.893669 106.179977
[null_rope02_connect]
43 328.732849 0.000179 -0.000119 -124.594894 66.582054 -16.400602 328.732849
44 328.732849 0.000179 -0.000119 -128.537491 66.936012 -20.255299 328.732849
[Rope2_Seg01]
43 0.000072 0.000016 0.000000 13.330550 27.228380 -50.943398 0.000074
44 0.000073 0.000013 0.000000 10.711555 20.958700 -51.864449 0.000074
[Rope2_Seg02]
43 139.999741 -0.000060 -0.000119 -14.526284 -7.425548 -15.236496 139.999756
44 139.999741 -0.000060 -0.000119 -16.914278 -5.724626 -15.512094 139.999756
[Rope2_Seg03]
43 140.000107 0.000030 0.000000 -11.176370 -1.593401 -15.591464 140.000107
44 140.000107 0.000030 0.000000 -10.097444 0.818342 -13.157203 140.000107
[Rope2_Seg04]
43 139.999802 0.000000 -0.000060 -5.525721 -0.834967 -9.083527 139.999802
44 139.999802 0.000000 -0.000060 -5.736598 -0.564745 -8.415808 139.999802
[Rope2_Seg05]
43 139.999985 -0.000060 0.000119 -2.636415 -4.171085 -2.600461 139.999985
44 139.999985 -0.000060 0.000119 -3.968528 -3.065721 -4.888648 139.999985
[Rope2_Seg06]
43 139.999893 -0.000030 -0.000119 -2.337311 -2.597174 -2.473974 139.999893
44 139.999893 -0.000030 -0.000119 -2.615128 -1.167220 -3.504576 139.999893
[Rope2_Seg07]
43 139.999893 0.000060 -0.000060 -1.895217 -1.449363 -2.180754 139.999893
44 139.999893 0.000060 -0.000060 -1.757828 -0.535982 -2.473362 139.999893
[Rope2_Seg09]
43 121.338966 0.000089 -0.000060 33.793236 -1.359788 -0.847141 121.338966
44 121.338966 0.000089 -0.000060 33.793236 -1.359788 -0.847141 121.338966
[R_mid_hand01]
43 104.680779 11.144459 -10.335981 -16.212063 45.237247 70.462852 105.778534
44 104.680779 11.144459 -10.335981 -16.212063 45.237240 70.462845 105.778534
[R_mid_hand02]
43 104.070427 2.443552 8.231699 49.067368 -67.749771 39.286453 104.424065
44 104.070427 2.443552 8.231699 49.067387 -67.749794 39.286469 104.424065
[R_mid_hand03]
43 106.028137 -11.221827 -5.996406 -177.101105 15.551026 -76.585571 106.788818
44 106.028137 -11.221827 -5.996406 -177.101105 15.551026 -76.585571 106.788818
[spine02]
43 129.756927 0.001550 0.000119 0.371322 -4.043665 -13.094756 129.756927
44 129.756927 0.001550 0.000119 0.366836 -4.044132 -13.037323 129.756927
[spine03]
43 78.613907 0.081635 -4.899023 1.905077 3.828752 16.583315 78.766449
44 78.613907 0.081635 -4.899023 1.902440 3.829489 16.553236 78.766449
[pelvis]
43 169.435242 0.051022 0.000000 -0.060833 -0.180101 14.322183 169.435257
44 169.435242 0.051022 0.000000 -0.060700 -0.180146 14.237443 169.435257
[null_rope03_connect]
43 -1.257226 -2.466202 137.391083 162.985031 -88.412186 -95.331284 137.418976
44 -1.257226 -2.466202 137.391083 161.118866 -88.717163 -95.343246 137.418976
[null_rope04_connect]
43 -1.259640 -2.480268 -137.844437 162.985031 -88.412186 -95.331284 137.872513
44 -1.259640 -2.480268 -137.844437 161.118866 -88.717163 -95.343246 137.872513
[Rope3_Seg01]
43 0.000008 -0.000549 0.000000 17.170055 -2.814433 -93.053032 0.000550
44 0.000006 -0.000562 0.000000 14.855849 5.842818 -94.241463 0.000562
[Rope3_Seg02]
43 139.999924 -0.000119 0.000060 -0.116850 2.224514 1.795085 139.999924
44 139.999924 -0.000119 0.000060 0.130089 1.537293 2.565715 139.999924
[Rope3_Seg03]
43 139.999924 -0.000119 0.000119 -0.093034 2.754064 2.235665 139.999924
44 139.999924 -0.000119 0.000119 0.136753 1.868183 3.125417 139.999924
[Rope3_Seg04]
43 139.999924 0.000119 0.000000 -0.122829 4.637508 3.283766 139.999924
44 139.999924 0.000119 0.000000 0.172852 2.944723 5.499729 139.999924
[Rope3_Seg05]
43 139.999924 -0.000238 0.000060 0.211998 3.360353 3.457031 139.999924
44 139.999924 -0.000238 0.000060 0.183694 2.030985 2.453611 139.999924
[Rope3_Seg06]
43 139.999893 -0.000119 -0.000060 0.397582 -0.614663 0.874938 139.999893
44 139.999893 -0.000119 -0.000060 0.433767 -0.115299 -1.769406 139.999893
[Rope3_Seg07]
43 139.999771 0.000060 -0.000119 0.502956 0.255360 0.794108 139.999771
44 139.999771 0.000060 -0.000119 0.505586 0.299311 -0.204738 139.999771
[Rope3_Seg08]
43 139.999985 -0.000060 0.000000 0.531817 0.216921 0.507132 139.999985
44 139.999985 -0.000060 0.000000 0.535666 0.209716 -0.071541 139.999985
[Rope3_Seg09]
43 90.185997 -0.000179 -0.000060 89.793228 -1.359877 -0.847183 90.185997
44 90.185997 -0.000179 -0.000060 89.793228 -1.359877 -0.847183 90.185997
[R_rear_hand01]
43 103.366196 -6.073594 -10.757982 -177.714203 24.565960 -73.910950 104.101845
44 103.366196 -6.073594 -10.757982 -177.714203 24.565960 -73.910950 104.101845
[R_rear_hand02]
43 100.509819 12.039542 -7.992327 -12.874829 36.868488 72.167213 101.543350
44 100.509819 12.039542 -7.992327 -12.874829 36.868488 72.167213 101.543350
[R_rear_hand03]
43 101.539970 5.215704 5.435467 71.484581 -71.816628 21.513813 101.819031
44 101.539970 5.215704 5.435467 71.484581 -71.816628 21.513813 101.819031
[Rope4_Seg01]
43 -0.000011 -0.000008 -0.000153 -101.885574 11.787086 -121.445068 0.000153
44 -0.000010 -0.000006 -0.000153 -103.043419 14.652815 -121.677994 0.000153
[Rope4_Seg02]
43 139.999985 0.000060 0.000119 -1.261158 -4.630376 1.725819 139.999985
44 139.999985 0.000060 0.000119 -1.215956 -4.598890 1.476115 139.999985
[Rope4_Seg03]
43 139.999924 0.000000 -0.000238 -1.112273 -5.255454 1.830235 139.999924
44 139.999924 0.000000 -0.000238 -1.074370 -5.218823 1.555786 139.999924
[Rope4_Seg04]
43 139.999985 0.000000 0.000119 -1.531753 -11.492765 3.327790 139.999985
44 139.999985 0.000000 0.000119 -1.319415 -11.613004 2.233950 139.999985
[Rope4_Seg05]
43 139.999802 -0.000060 -0.000119 -0.099538 -2.826702 1.193946 139.999802
44 139.999802 -0.000060 -0.000119 -0.133314 -3.192223 1.469904 139.999802
[Rope4_Seg06]
43 139.999924 0.000000 0.000060 0.764114 11.307633 -2.139429 139.999924
44 139.999924 0.000000 0.000060 0.797540 11.705330 -0.190030 139.999924
[Rope4_Seg07]
43 139.999802 0.000000 0.000000 1.025820 6.089431 -1.231547 139.999802
44 139.999802 0.000000 0.000000 0.947441 6.406448 -0.183086 139.999802
[Rope4_Seg08]
43 139.999924 0.000000 0.000119 -0.964651 2.544639 -0.519420 139.999924
44 139.999924 0.000000 0.000119 -1.047504 2.603262 -0.017197 139.999924
[Rope4_Seg09]
43 90.185791 0.000060 0.000060 -135.617828 2.228885 0.850567 90.185791
44 90.185791 0.000060 0.000060 -135.617828 2.228885 0.850567 90.185791
[L_rear_hand01]
43 101.696655 -8.392275 -7.654577 -12.874829 -36.868488 107.832764 102.329041
44 101.696655 -8.392275 -7.654577 -12.874829 -36.868488 107.832764 102.329041
[L_rear_hand02]
43 102.726799 -1.568258 5.773216 71.484581 71.816628 158.486160 102.900848
44 102.726799 -1.568258 5.773216 71.484581 71.816628 158.486160 102.900848
[L_rear_hand03]
43 104.552910 9.721220 -10.420293 -177.714203 -24.565960 -106.089035 105.519653
44 104.552910 9.721220 -10.420293 -177.714203 -24.565960 -106.089035 105.519653
